<?xml version="1.0" encoding="iso-8859-1"?>
<!-- Generator: Adobe Illustrator 19.0.0, SVG Export Plug-In . SVG Version: 6.00 Build 0)  -->
<svg version="1.1" id="Layer_1" xmlns="http://www.w3.org/2000/svg" xmlns:xlink="http://www.w3.org/1999/xlink" x="0px" y="0px"
	 viewBox="0 0 512 512" style="enable-background:new 0 0 512 512;" xml:space="preserve">
<path style="fill:#FF6464;" d="M0,167.685C0,89.7,62.854,26.483,140.387,26.483c38.429,0,73.223,15.553,98.561,40.723
	c9.395,9.333,24.708,9.333,34.104,0c25.337-25.17,60.131-40.723,98.56-40.723C449.146,26.483,512,89.7,512,167.685l0,0
	c0,145.835-187.788,278.502-241.693,313.579c-8.714,5.671-19.9,5.671-28.614,0C187.788,446.186,0,313.52,0,167.685"/>
<path style="fill:#D2555A;" d="M197.481,38.802c-17.453-7.849-36.734-12.319-57.094-12.319C62.854,26.483,0,89.7,0,167.685
	c0,145.834,187.788,278.5,241.694,313.579c4.358,2.836,9.332,4.253,14.306,4.253C64.151,223.638,132.414,77.09,197.481,38.802z"/>
<g>
</g>
<g>
</g>
<g>
</g>
<g>
</g>
<g>
</g>
<g>
</g>
<g>
</g>
<g>
</g>
<g>
</g>
<g>
</g>
<g>
</g>
<g>
</g>
<g>
</g>
<g>
</g>
<g>
</g>
</svg>
