<?xml version="1.0" encoding="iso-8859-1"?>
<!-- Generator: Adobe Illustrator 19.0.0, SVG Export Plug-In . SVG Version: 6.00 Build 0)  -->
<svg version="1.1" id="Layer_1" xmlns="http://www.w3.org/2000/svg" xmlns:xlink="http://www.w3.org/1999/xlink" x="0px" y="0px"
	 viewBox="0 0 496 496" style="enable-background:new 0 0 496 496;" xml:space="preserve">
<g>
	<polygon style="fill:#FFA64D;" points="80,415.992 120,487.992 160,415.992 	"/>
	<polygon style="fill:#FFA64D;" points="160,415.992 200,487.992 240,415.992 	"/>
	<polygon style="fill:#FFA64D;" points="240,415.992 280,487.992 320,415.992 	"/>
	<polygon style="fill:#FFA64D;" points="336,415.992 376,487.992 416,415.992 	"/>
</g>
<g>
	<path style="fill:#333333;" d="M150.696,343.496c-36.96,5.688-68.048,32.424-79.2,68.112L45.12,496h405.76l-26.376-84.392
		c-11.152-35.688-42.24-62.424-79.2-68.112L304,337.144v-1.272c11.4-4.76,21.952-11.48,31.08-20.04
		C340.952,323.184,349.88,328,360,328c6.832,0,13.44-2.2,18.88-6.176C385.024,325.68,392.232,328,400,328c22.056,0,40-17.944,40-40
		c0-13.232-10.768-24-24-24s-24,10.768-24,24v8h16v-8c0-4.408,3.592-8,8-8s8,3.592,8,8c0,13.232-10.768,24-24,24s-24-10.768-24-24
		v-33.472c9.288-3.312,16-12.112,16-22.528v-63.208L425.76,0H280h-64H70.24L104,168.8v63.208c0,10.416,6.712,19.216,16,22.528
		v33.472c0,13.232-10.768,24-24,24s-24-10.768-24-24c0-4.408,3.592-8,8-8s8,3.592,8,8v8h16v-8c0-13.232-10.768-24-24-24
		s-24,10.768-24,24c0,22.056,17.944,40,40,40c7.776,0,14.976-2.32,21.12-6.176c5.44,3.968,12.048,6.176,18.88,6.176
		c10.12,0,19.048-4.816,24.912-12.168c9.136,8.56,19.68,15.28,31.088,20.04v1.264L150.696,343.496z M154.344,367.032
		c3.016-3.024,8.288-3.024,11.312,0c1.512,1.512,2.344,3.52,2.344,5.656c0,2.136-0.832,4.144-2.344,5.656L160,384l5.664,5.656
		c3.12,3.12,3.12,8.192,0,11.32c-3.016,3.024-8.288,3.024-11.312,0L137.376,384L154.344,367.032z M230.144,424l-27.216,47.824
		L175.712,424H230.144z M148.192,424l-27.216,47.824L93.76,424H148.192z M161.952,432.176L189.168,480h-54.432L161.952,432.176z
		 M243.904,432.176L271.12,480h-54.44L243.904,432.176z M257.664,424h54.44l-27.224,47.832L257.664,424z M329.952,424.984
		l31.312,55.024H298.64L329.952,424.984z M341.656,378.344L336,384l5.664,5.656c3.12,3.12,3.12,8.192,0,11.32
		c-3.016,3.024-8.288,3.024-11.312,0L313.376,384l16.976-16.968c3.016-3.024,8.288-3.024,11.312,0
		c1.504,1.512,2.336,3.52,2.336,5.656C344,374.824,343.168,376.832,341.656,378.344z M319.032,355.72L290.744,384l24,24H180.288
		c3.032-4.848,4.184-10.512,3.416-16H200v-16h-16.408c0.152-1.096,0.408-2.176,0.408-3.312c0-6.408-2.496-12.44-7.024-16.968
		c-0.024-0.024-0.056-0.04-0.088-0.072l17.88-2.752C201.056,366.336,217.192,384,248,384s46.944-17.664,53.232-31.104l17.88,2.752
		C319.088,355.68,319.056,355.696,319.032,355.72z M288,342.832c-1.368,4.16-9.768,25.176-40,25.176
		c-30.224,0-38.608-20.92-40-25.176v-1.728c7.808,1.856,15.84,2.904,24,2.904h32c8.16,0,16.192-1.048,24-2.904V342.832z
		 M133.792,364.96L114.752,384l24,24h-48.68C98.608,388.552,114.408,373.168,133.792,364.96z M81.184,434.256l26.04,45.752H66.88
		L81.184,434.256z M429.12,480h-40.336l7.576-13.304l-13.904-7.912l-7.424,13.048l-27.216-47.824h54.44L391.904,442.2l13.904,7.912
		l9.024-15.864L429.12,480z M405.936,408h-49.648c3.032-4.848,4.184-10.512,3.416-16H376v-16h-16.408
		c0.152-1.096,0.408-2.176,0.408-3.312c0-3.248-0.648-6.392-1.872-9.296C379.352,371.08,396.808,387.208,405.936,408z M344,296
		v-41.472c2.992-1.064,5.688-2.68,8-4.768c2.312,2.08,5.008,3.704,8,4.768V288c0,8.296,2.544,16,6.88,22.4
		c-2.136,1.024-4.472,1.6-6.88,1.6C351.176,312,344,304.824,344,296z M368,240c-4.408,0-8-3.592-8-8v-56h16v56
		C376,236.416,372.408,240,368,240z M128,240c-4.408,0-8-3.592-8-8v-56h16v56C136,236.416,132.408,240,128,240z M118.56,160l-3.2-16
		h265.28l-3.2,16H118.56z M371.984,16l-25.936,75.032l-30.24-10.456L338.128,16C338.128,16,371.984,16,371.984,16z M157.872,16
		l22.32,64.576l-30.24,10.456L124.016,16C124.016,16,157.872,16,157.872,16z M107.08,16l32.968,95.384l60.496-20.904L174.808,16H216
		v16h16V16h32v80h-32V48h-16v64h64V16h41.2l-25.736,74.48l60.496,20.904L388.928,16h17.32l-22.4,112H112.16L89.76,16
		C89.76,16,107.08,16,107.08,16z M136,312c-2.408,0-4.752-0.584-6.88-1.6c4.336-6.392,6.88-14.104,6.88-22.4v-33.472
		c2.992-1.064,5.688-2.68,8-4.768c2.312,2.08,5.008,3.704,8,4.768V296C152,304.824,144.824,312,136,312z M167.608,299.848
		c0.16-1.272,0.392-2.528,0.392-3.848v-41.472c9.288-3.312,16-12.112,16-22.528h-16c0,4.408-3.592,8-8,8s-8-3.592-8-8v-56h192v56
		c0,4.408-3.592,8-8,8s-8-3.592-8-8h-16c0,10.416,6.712,19.216,16,22.528V296c0,1.32,0.232,2.576,0.392,3.848
		C311.76,317.72,288.464,328,264,328h-32C207.536,328,184.24,317.728,167.608,299.848z"/>
	<path style="fill:#333333;" d="M288,240c13.232,0,24-10.768,24-24s-10.768-24-24-24s-24,10.768-24,24S274.768,240,288,240z
		 M288,208c4.408,0,8,3.592,8,8s-3.592,8-8,8s-8-3.592-8-8S283.592,208,288,208z"/>
	<path style="fill:#333333;" d="M208,240c13.232,0,24-10.768,24-24s-10.768-24-24-24s-24,10.768-24,24S194.768,240,208,240z
		 M208,208c4.408,0,8,3.592,8,8s-3.592,8-8,8s-8-3.592-8-8S203.592,208,208,208z"/>
	<path style="fill:#333333;" d="M310.656,276.44l-13.312-8.872c-0.136,0.2-14.032,20.44-49.344,20.44
		c-34.824,0-48.8-19.656-49.376-20.496l-13.28,8.928C186.096,277.568,204.224,304,248,304S309.904,277.568,310.656,276.44z"/>
</g>
<g>
</g>
<g>
</g>
<g>
</g>
<g>
</g>
<g>
</g>
<g>
</g>
<g>
</g>
<g>
</g>
<g>
</g>
<g>
</g>
<g>
</g>
<g>
</g>
<g>
</g>
<g>
</g>
<g>
</g>
</svg>
