<?xml version="1.0" encoding="iso-8859-1"?>
<!-- Generator: Adobe Illustrator 19.0.0, SVG Export Plug-In . SVG Version: 6.00 Build 0)  -->
<svg version="1.1" id="Layer_1" xmlns="http://www.w3.org/2000/svg" xmlns:xlink="http://www.w3.org/1999/xlink" x="0px" y="0px"
	 viewBox="0 0 496.008 496.008" style="enable-background:new 0 0 496.008 496.008;" xml:space="preserve">
<g>
	<polygon style="fill:#FFA64D;" points="224.004,487.992 168.004,335.992 120.004,303.992 72.004,352.008 112.004,488.008 	"/>
	<polygon style="fill:#FFA64D;" points="272.004,487.992 328.004,335.992 376.004,303.992 424.004,352.008 384.004,488.008 	"/>
</g>
<g>
	<path style="fill:#333333;" d="M378.348,386.344L359.7,404.992c-1.496-11.8-11.488-20.992-23.696-20.992c-13.232,0-24,10.768-24,24
		v56h56c13.232,0,24-10.768,24-24c0-12.208-9.192-22.2-20.992-23.696l18.648-18.648L378.348,386.344z M376.004,440
		c0,4.408-3.584,8-8,8h-40v-40c0-4.408,3.584-8,8-8s8,3.592,8,8v24h24C372.42,432,376.004,435.592,376.004,440z"/>
	<path style="fill:#333333;" d="M304.004,192c13.232,0,24-10.768,24-24s-10.768-24-24-24s-24,10.768-24,24S290.772,192,304.004,192z
		 M304.004,160c4.416,0,8,3.592,8,8s-3.584,8-8,8s-8-3.592-8-8S299.588,160,304.004,160z"/>
	<path style="fill:#333333;" d="M440.724,128L465.716,0H30.292l24.992,128h24.72v12.944c0,26.784-5.256,52.864-15.544,77.568
		c-5.2,5.696-8.456,13.192-8.456,21.488c0,24.784,18.88,45.232,43.008,47.736c2.024,3.592,5.448,9.024,10.6,15.352L81.78,330.92
		c-16.616,16.624-25.776,38.72-25.776,62.224v102.864h384V393.144c0-23.504-9.16-45.6-25.776-62.224l-27.824-27.832
		c5.144-6.32,8.576-11.752,10.6-15.352c24.12-2.504,43-22.952,43-47.736c0-8.296-3.256-15.8-8.456-21.488
		c-10.288-24.704-15.544-50.776-15.544-77.568V128H440.724z M400.004,112V64h-16v48h-3.376c-4.032-7.672-12.624-27.408-12.624-56
		c0-21.352,17.896-29.48,24-31.624c6.104,2.152,24,10.272,24,31.624c0,28.376-8.632,48.28-12.648,56H400.004z M96.004,64v48h-3.376
		c-4.032-7.672-12.624-27.408-12.624-56c0-21.352,17.896-29.48,24-31.624c6.104,2.152,24,10.272,24,31.624
		c0,28.376-8.632,48.28-12.648,56h-3.352V64H96.004z M240.004,64v48h-3.376c-4.032-7.672-12.624-27.408-12.624-56
		c0-21.376,17.928-29.496,24-31.632c6.096,2.152,24,10.272,24,31.632c0,28.376-8.632,48.28-12.648,56h-3.352V64H240.004z
		 M144.132,63.832C151.78,53.776,163.396,48,176.004,48c12.872,0,24.704,6.136,32.248,16.456c0.168,3.064,0.432,6,0.76,8.856
		C199.74,67.488,188.348,64,176.004,64s-23.736,3.48-33,9.304c0.352-3.128,0.648-6.336,0.816-9.712L144.132,63.832z M176.004,80
		c22.056,0,40,14.352,40,32h-80C136.004,94.36,153.948,80,176.004,80z M288.132,63.832C295.78,53.776,307.396,48,320.004,48
		c12.872,0,24.704,6.136,32.248,16.456c0.168,3.064,0.432,6,0.76,8.856C343.74,67.488,332.348,64,320.004,64s-23.736,3.48-33,9.304
		c0.352-3.128,0.648-6.336,0.816-9.712L288.132,63.832z M280.004,112c0-17.648,17.944-32,40-32s40,14.352,40,32H280.004z
		 M353.668,43.288C344.116,36.08,332.404,32,320.004,32c-12.408,0-24.08,4.064-33.656,11.32c-3.344-12.656-11.4-21.56-19.792-27.32
		h106.896C365.076,21.752,357.02,30.648,353.668,43.288z M209.668,43.288C200.116,36.08,188.404,32,176.004,32
		c-12.408,0-24.08,4.064-33.656,11.32c-3.344-12.656-11.4-21.56-19.792-27.32h106.896C221.076,21.752,213.02,30.648,209.668,43.288z
		 M139.804,271.864c-2.184,7.248-1.96,15.056,0.984,22.16c3.664,8.848,10.984,15.664,20.072,18.696
		c4.656,1.552,9.456,1.96,14.096,1.432l-5.848,14.344c-28.832-13.088-44.688-31.304-52.2-42.312
		C125.876,283.68,133.772,278.632,139.804,271.864z M191.724,315.392c4.04,6.192,10.008,10.952,17.136,13.328
		c3.408,1.136,6.888,1.672,10.336,1.672c7.456,0,14.696-2.584,20.52-7.144l0.2,20.432c-21.872-0.728-40.448-4.192-55.904-9.368
		L191.724,315.392z M255.924,343.696l-0.208-20.952c8.568,7.032,20.392,9.648,31.424,5.976c6.736-2.248,12.48-6.592,16.504-12.28
		l7.736,18.056C296.004,339.592,277.596,342.992,255.924,343.696z M326.34,328.776l-6.344-14.808
		c4.976,0.736,10.144,0.424,15.152-1.248c9.088-3.032,16.408-9.848,20.072-18.696c2.944-7.104,3.176-14.912,0.992-22.16
		c6.032,6.768,13.928,11.816,22.896,14.32C371.532,297.272,355.548,315.672,326.34,328.776z M349.124,261.448l-12.272,6.136
		l3.088,6.168c2.208,4.424,2.392,9.584,0.496,14.152c-1.888,4.568-5.664,8.08-10.352,9.648c-8.024,2.68-16.872-1.008-20.632-8.544
		l-6.288-12.576l-14.312,7.16l3.088,6.168c2.208,4.424,2.392,9.584,0.496,14.152c-1.888,4.568-5.664,8.08-10.352,9.648
		c-8.016,2.672-16.864-1.016-20.632-8.544l-2.208-4.424h-22.472l-2.208,4.424c-3.768,7.528-12.6,11.216-20.632,8.544
		c-4.688-1.56-8.464-5.08-10.352-9.648c-1.888-4.568-1.712-9.728,0.496-14.152l3.088-6.168l-14.312-7.16l-6.288,12.576
		c-3.76,7.528-12.608,11.232-20.632,8.544c-4.688-1.56-8.464-5.08-10.352-9.648c-1.888-4.568-1.712-9.728,0.496-14.152l3.088-6.168
		l-12.272-6.136c3.248-6.464,5.12-13.728,5.12-21.44v-112h75.72h40.56h75.712v112C344.004,247.712,345.876,254.984,349.124,261.448z
		 M427.548,112h-6.504c4.952-11.568,10.96-30.768,10.96-56c0-19.632-10.488-32.48-21.448-40h35.736L427.548,112z M49.716,16h35.736
		c-10.96,7.528-21.448,20.368-21.448,40c0,25.232,6.008,44.432,10.96,56H68.46L49.716,16z M72.004,240c0-8.824,7.176-16,16-16
		s16,7.176,16,16v8h16v-8v-64h-16v36.448c-4.728-2.752-10.144-4.448-16-4.448c-0.928,0-1.8,0.2-2.712,0.272
		c7.088-21.712,10.712-44.28,10.712-67.328V128h28.28h11.72v112c0,17.648-14.352,32-32,32S72.004,257.648,72.004,240z
		 M72.004,393.144c0-19.224,7.496-37.312,21.088-50.912l27.368-27.368c19.16,18.464,51.664,39.024,103.544,43.984v121.16h-152
		V393.144z M424.004,393.144v86.864h-152v-16h-16v16h-16v-120.16c2.64,0.08,5.272,0.16,8,0.16s5.36-0.08,8-0.16v88.16h16v-89.16
		c51.872-4.96,84.384-25.52,103.544-43.984l27.368,27.368C416.508,355.832,424.004,373.912,424.004,393.144z M392.004,272
		c-17.648,0-32-14.352-32-32V128h11.72h28.28v12.944c0,23.048,3.624,45.616,10.712,67.336c-0.904-0.08-1.784-0.272-2.712-0.272
		c-5.856,0-11.272,1.696-16,4.448v-36.448h-16v64v8h16v-8c0-8.824,7.176-16,16-16s16,7.176,16,16
		C424.004,257.648,409.652,272,392.004,272z"/>
	<path style="fill:#333333;" d="M192.004,192c13.232,0,24-10.768,24-24s-10.768-24-24-24s-24,10.768-24,24S178.772,192,192.004,192z
		 M192.004,160c4.416,0,8,3.592,8,8s-3.584,8-8,8s-8-3.592-8-8S187.588,160,192.004,160z"/>
	<path style="fill:#333333;" d="M315.148,208h-3.144v16h3.144c2.68,0,4.856,2.176,4.856,4.856c0,6.144-5,11.144-11.904,11.144
		c-3.976,0-7.64-2.184-9.808-5.84c-7.04-11.88-16.136-18.16-26.288-18.16c-9.024,0-17.352,5.128-24,14.608
		c-6.64-9.488-14.968-14.608-24-14.608c-10.16,0-19.248,6.28-26.288,18.168c-2.168,3.656-5.832,5.832-10.568,5.832
		c-6.144,0-11.144-5-11.144-11.144c0-2.68,2.176-4.856,4.856-4.856h3.144v-16h-3.144c-11.504,0-20.856,9.36-20.856,20.856
		c0,14.968,12.168,27.144,27.904,27.144c9.688,0,18.496-5.12,23.568-13.68c2.28-3.848,6.944-10.32,12.52-10.32
		c6.712,0,12.096,9.232,14.104,13.2l2.296,4.56l15.432-0.496l2.152-4.216c1.992-3.92,7.36-13.048,14.024-13.048
		c5.576,0,10.24,6.464,12.52,10.312C289.596,250.88,298.404,256,308.86,256c14.968,0,27.144-12.176,27.144-27.144
		C336.004,217.36,326.644,208,315.148,208z"/>
	<path style="fill:#333333;" d="M160.004,384c-12.208,0-22.2,9.192-23.696,20.992l-18.648-18.648l-11.312,11.312l18.648,18.648
		c-11.8,1.504-20.992,11.496-20.992,23.696c0,13.232,10.768,24,24,24h56v-56C184.004,394.768,173.236,384,160.004,384z M168.004,448
		h-40c-4.416,0-8-3.592-8-8s3.584-8,8-8h24v-24c0-4.408,3.584-8,8-8s8,3.592,8,8V448z"/>
	<rect x="104.004" y="143.992" style="fill:#333333;" width="16" height="16"/>
	<rect x="376.004" y="143.992" style="fill:#333333;" width="16" height="16"/>
</g>
<g>
</g>
<g>
</g>
<g>
</g>
<g>
</g>
<g>
</g>
<g>
</g>
<g>
</g>
<g>
</g>
<g>
</g>
<g>
</g>
<g>
</g>
<g>
</g>
<g>
</g>
<g>
</g>
<g>
</g>
</svg>
